<?xml version="1.0" encoding="UTF-8"?>
<svg xmlns="http://www.w3.org/2000/svg" width="2400" height="980" viewBox="0 0 2400 980">
  <rect width="2400" height="980" fill="transparent"/>
  <g opacity="0.5">
<polygon points="1066.7,566.5 1563.7,865.0 1222.0,601.9" fill="#ffffff" opacity="0.044"/><polygon points="63.5,238.4 317.0,505.2 1222.0,601.9" fill="#ffffff" opacity="0.055"/><polygon points="1563.7,865.0 317.0,505.2 1222.0,601.9" fill="#ffffff" opacity="0.061"/><polygon points="1279.5,-73.8 53.9,886.3 1741.6,-96.4" fill="#ffffff" opacity="0.044"/><polygon points="241.0,-130.8 1279.5,-73.8 53.9,886.3" fill="#ffffff" opacity="0.047"/><polygon points="1741.6,-96.4 53.9,886.3 241.0,-130.8" fill="#ffffff" opacity="0.046"/><polygon points="1253.5,669.6 -115.8,443.8 332.6,159.7" fill="#ffffff" opacity="0.033"/><polygon points="1033.5,928.3 1080.5,206.0 -115.8,443.8" fill="#ffffff" opacity="0.036"/><polygon points="-115.8,443.8 1253.5,669.6 1033.5,928.3" fill="#ffffff" opacity="0.069"/><polygon points="2170.4,344.7 1945.6,362.5 2152.6,756.0" fill="#ffffff" opacity="0.065"/><polygon points="2593.4,1124.5 609.3,-60.1 682.8,144.0" fill="#ffffff" opacity="0.072"/><polygon points="2593.4,1124.5 2170.4,344.7 1945.6,362.5" fill="#ffffff" opacity="0.059"/><polygon points="1979.8,195.3 2348.8,451.6 4.5,655.7" fill="#ffffff" opacity="0.038"/><polygon points="2482.5,934.6 1979.8,195.3 2545.0,358.7" fill="#ffffff" opacity="0.063"/><polygon points="1979.8,195.3 2482.5,934.6 -198.5,118.4" fill="#ffffff" opacity="0.078"/><polygon points="130.4,165.4 1366.0,422.7 44.0,275.7" fill="#ffffff" opacity="0.071"/><polygon points="44.0,275.7 82.9,-73.3 1366.0,422.7" fill="#ffffff" opacity="0.082"/><polygon points="2031.7,77.4 44.0,275.7 82.9,-73.3" fill="#ffffff" opacity="0.053"/><polygon points="333.9,786.8 2518.6,878.4 651.6,982.6" fill="#ffffff" opacity="0.035"/><polygon points="651.6,982.6 333.9,786.8 126.2,388.6" fill="#ffffff" opacity="0.083"/><polygon points="651.6,982.6 126.2,388.6 396.0,195.3" fill="#ffffff" opacity="0.086"/><polygon points="629.7,-56.0 1963.5,271.1 397.1,180.6" fill="#ffffff" opacity="0.056"/><polygon points="1963.5,271.1 390.0,354.7 629.7,-56.0" fill="#ffffff" opacity="0.049"/><polygon points="390.0,354.7 397.1,180.6 629.7,-56.0" fill="#ffffff" opacity="0.044"/><polygon points="311.9,47.3 52.3,595.9 2485.6,469.2" fill="#ffffff" opacity="0.077"/><polygon points="311.9,47.3 2485.6,469.2 840.8,430.1" fill="#ffffff" opacity="0.084"/><polygon points="840.8,430.1 311.9,47.3 480.4,619.6" fill="#ffffff" opacity="0.071"/></g>
<g stroke="#ffffff" opacity="0.06"><line x1="426.7" y1="100.1" x2="540.3" y2="144.9" stroke-width="1"/><line x1="1049.0" y1="952.2" x2="1000.6" y2="998.7" stroke-width="1"/><line x1="416.1" y1="408.5" x2="501.8" y2="524.4" stroke-width="1"/><line x1="2188.7" y1="353.6" x2="2212.0" y2="302.2" stroke-width="1"/><line x1="254.1" y1="485.8" x2="348.4" y2="583.5" stroke-width="1"/><line x1="1749.2" y1="1021.0" x2="1686.7" y2="928.4" stroke-width="1"/><line x1="1071.7" y1="224.7" x2="991.6" y2="200.6" stroke-width="1"/><line x1="1526.9" y1="482.8" x2="1475.2" y2="577.7" stroke-width="1"/><line x1="2453.3" y1="433.9" x2="2334.2" y2="302.7" stroke-width="1"/><line x1="2169.4" y1="-51.0" x2="2227.8" y2="-31.3" stroke-width="1"/><line x1="703.5" y1="834.0" x2="568.8" y2="732.0" stroke-width="1"/><line x1="1082.6" y1="-70.8" x2="1174.9" y2="-144.3" stroke-width="1"/><line x1="266.3" y1="-44.6" x2="302.4" y2="-59.6" stroke-width="1"/><line x1="1537.9" y1="673.0" x2="1624.0" y2="801.3" stroke-width="1"/><line x1="1679.7" y1="135.2" x2="1672.7" y2="45.3" stroke-width="1"/><line x1="-72.0" y1="457.2" x2="-12.0" y2="367.3" stroke-width="1"/><line x1="608.1" y1="308.0" x2="663.4" y2="313.7" stroke-width="1"/><line x1="1497.6" y1="792.3" x2="1467.7" y2="874.1" stroke-width="1"/><line x1="2256.2" y1="2.9" x2="2377.3" y2="65.2" stroke-width="1"/><line x1="237.8" y1="435.2" x2="272.9" y2="550.0" stroke-width="1"/><line x1="879.7" y1="571.2" x2="985.9" y2="654.3" stroke-width="1"/><line x1="2355.1" y1="447.2" x2="2397.4" y2="364.5" stroke-width="1"/><line x1="1777.0" y1="865.6" x2="1816.7" y2="926.6" stroke-width="1"/><line x1="454.6" y1="962.0" x2="589.1" y2="1095.6" stroke-width="1"/><line x1="1296.1" y1="833.1" x2="1245.8" y2="947.9" stroke-width="1"/><line x1="2125.0" y1="311.2" x2="2008.2" y2="294.7" stroke-width="1"/><line x1="1330.8" y1="806.5" x2="1327.3" y2="674.5" stroke-width="1"/><line x1="2003.8" y1="-24.4" x2="2087.7" y2="-116.0" stroke-width="1"/><line x1="771.0" y1="829.7" x2="670.4" y2="731.4" stroke-width="1"/><line x1="1243.0" y1="753.8" x2="1338.2" y2="806.8" stroke-width="1"/><line x1="2358.9" y1="481.2" x2="2484.7" y2="365.3" stroke-width="1"/><line x1="475.7" y1="521.5" x2="416.9" y2="585.5" stroke-width="1"/><line x1="1561.1" y1="516.9" x2="1657.3" y2="533.7" stroke-width="1"/><line x1="710.4" y1="349.8" x2="807.1" y2="462.0" stroke-width="1"/><line x1="441.4" y1="903.9" x2="572.6" y2="910.7" stroke-width="1"/><line x1="1389.8" y1="137.1" x2="1399.8" y2="138.0" stroke-width="1"/><line x1="1473.6" y1="-67.2" x2="1605.0" y2="-62.8" stroke-width="1"/><line x1="941.5" y1="845.3" x2="959.1" y2="842.8" stroke-width="1"/><line x1="1696.6" y1="-22.2" x2="1707.4" y2="-46.4" stroke-width="1"/><line x1="2387.8" y1="989.6" x2="2323.2" y2="982.1" stroke-width="1"/><line x1="230.1" y1="411.7" x2="318.5" y2="523.9" stroke-width="1"/><line x1="1139.0" y1="274.3" x2="1052.6" y2="307.3" stroke-width="1"/><line x1="2305.7" y1="52.8" x2="2383.9" y2="-80.9" stroke-width="1"/><line x1="404.7" y1="168.2" x2="457.0" y2="118.3" stroke-width="1"/><line x1="823.9" y1="631.3" x2="713.3" y2="696.0" stroke-width="1"/><line x1="219.2" y1="502.4" x2="149.4" y2="417.7" stroke-width="1"/><line x1="1278.9" y1="415.4" x2="1244.1" y2="391.1" stroke-width="1"/><line x1="1276.3" y1="88.5" x2="1193.5" y2="125.2" stroke-width="1"/><line x1="1560.0" y1="525.0" x2="1658.4" y2="556.2" stroke-width="1"/><line x1="2127.6" y1="174.5" x2="2195.0" y2="261.5" stroke-width="1"/><line x1="2247.0" y1="272.7" x2="2195.2" y2="391.1" stroke-width="1"/><line x1="467.2" y1="1078.1" x2="575.7" y2="975.6" stroke-width="1"/><line x1="522.3" y1="757.4" x2="455.0" y2="644.5" stroke-width="1"/><line x1="2063.6" y1="397.5" x2="2144.8" y2="292.8" stroke-width="1"/><line x1="947.2" y1="708.6" x2="812.2" y2="624.8" stroke-width="1"/><line x1="1674.2" y1="975.4" x2="1805.3" y2="867.7" stroke-width="1"/><line x1="1214.8" y1="794.6" x2="1215.6" y2="846.6" stroke-width="1"/><line x1="391.4" y1="-16.7" x2="281.1" y2="-146.3" stroke-width="1"/><line x1="1334.3" y1="507.5" x2="1353.6" y2="408.5" stroke-width="1"/><line x1="379.8" y1="140.6" x2="475.1" y2="277.9" stroke-width="1"/><line x1="2309.9" y1="12.4" x2="2187.3" y2="138.8" stroke-width="1"/><line x1="1101.4" y1="802.4" x2="1052.9" y2="793.1" stroke-width="1"/><line x1="1239.7" y1="407.5" x2="1268.0" y2="271.2" stroke-width="1"/><line x1="1722.7" y1="896.2" x2="1633.4" y2="883.3" stroke-width="1"/><line x1="1822.3" y1="378.3" x2="1736.9" y2="284.5" stroke-width="1"/><line x1="1232.7" y1="-81.8" x2="1342.7" y2="2.7" stroke-width="1"/><line x1="1732.1" y1="915.7" x2="1768.4" y2="888.9" stroke-width="1"/><line x1="1459.0" y1="495.1" x2="1594.1" y2="580.4" stroke-width="1"/><line x1="571.5" y1="975.3" x2="639.9" y2="1053.2" stroke-width="1"/><line x1="2018.1" y1="378.7" x2="2129.1" y2="485.0" stroke-width="1"/><line x1="1706.5" y1="805.4" x2="1780.7" y2="779.0" stroke-width="1"/><line x1="1778.8" y1="-16.7" x2="1734.5" y2="-25.5" stroke-width="1"/><line x1="-72.5" y1="319.7" x2="-33.6" y2="354.4" stroke-width="1"/><line x1="503.5" y1="1014.7" x2="550.0" y2="969.3" stroke-width="1"/><line x1="1615.4" y1="572.1" x2="1624.6" y2="541.2" stroke-width="1"/><line x1="2499.7" y1="657.9" x2="2556.1" y2="731.2" stroke-width="1"/><line x1="2448.2" y1="-73.1" x2="2480.5" y2="-6.2" stroke-width="1"/><line x1="567.2" y1="373.8" x2="441.4" y2="288.6" stroke-width="1"/><line x1="876.8" y1="16.2" x2="807.0" y2="129.8" stroke-width="1"/><line x1="1330.1" y1="499.2" x2="1460.9" y2="518.3" stroke-width="1"/><line x1="2487.3" y1="652.9" x2="2573.9" y2="534.2" stroke-width="1"/><line x1="1453.6" y1="795.9" x2="1326.2" y2="916.4" stroke-width="1"/><line x1="315.8" y1="456.7" x2="223.2" y2="455.4" stroke-width="1"/><line x1="1489.0" y1="-30.9" x2="1613.7" y2="-53.1" stroke-width="1"/><line x1="1269.6" y1="605.4" x2="1231.9" y2="545.5" stroke-width="1"/><line x1="1603.3" y1="561.6" x2="1542.7" y2="622.2" stroke-width="1"/><line x1="669.7" y1="-83.5" x2="598.3" y2="-211.5" stroke-width="1"/><line x1="307.1" y1="790.5" x2="276.3" y2="901.8" stroke-width="1"/><line x1="1845.7" y1="-40.8" x2="1982.6" y2="83.6" stroke-width="1"/><line x1="91.1" y1="968.6" x2="71.4" y2="962.3" stroke-width="1"/><line x1="2430.2" y1="187.6" x2="2436.8" y2="310.0" stroke-width="1"/><line x1="1779.1" y1="452.7" x2="1913.2" y2="541.3" stroke-width="1"/><line x1="1469.4" y1="35.8" x2="1504.2" y2="23.4" stroke-width="1"/><line x1="429.5" y1="-38.6" x2="437.4" y2="-143.8" stroke-width="1"/><line x1="1051.4" y1="688.1" x2="1039.0" y2="621.5" stroke-width="1"/><line x1="1413.8" y1="395.0" x2="1491.6" y2="403.7" stroke-width="1"/><line x1="2493.8" y1="1024.1" x2="2559.4" y2="950.9" stroke-width="1"/><line x1="196.1" y1="953.4" x2="275.7" y2="988.4" stroke-width="1"/><line x1="833.9" y1="220.4" x2="885.7" y2="238.6" stroke-width="1"/><line x1="1438.4" y1="647.1" x2="1509.3" y2="560.2" stroke-width="1"/><line x1="547.3" y1="1056.1" x2="663.7" y2="1162.1" stroke-width="1"/><line x1="2.7" y1="-28.3" x2="-61.4" y2="-49.2" stroke-width="1"/><line x1="1520.7" y1="20.9" x2="1532.4" y2="-98.8" stroke-width="1"/><line x1="124.7" y1="698.0" x2="138.9" y2="734.7" stroke-width="1"/><line x1="870.3" y1="464.7" x2="789.3" y2="420.9" stroke-width="1"/><line x1="1836.5" y1="889.5" x2="1717.4" y2="783.0" stroke-width="1"/><line x1="2003.9" y1="636.0" x2="2079.1" y2="555.7" stroke-width="1"/><line x1="1003.3" y1="204.5" x2="1090.1" y2="167.8" stroke-width="1"/><line x1="1599.5" y1="1067.2" x2="1550.6" y2="1080.8" stroke-width="1"/><line x1="1839.9" y1="986.6" x2="1819.6" y2="950.0" stroke-width="1"/><line x1="152.2" y1="932.7" x2="34.2" y2="816.0" stroke-width="1"/><line x1="1367.0" y1="472.1" x2="1418.9" y2="415.8" stroke-width="1"/><line x1="1916.3" y1="-10.2" x2="1836.0" y2="35.2" stroke-width="1"/><line x1="112.4" y1="258.5" x2="175.4" y2="312.8" stroke-width="1"/><line x1="635.6" y1="68.6" x2="595.8" y2="131.9" stroke-width="1"/><line x1="852.6" y1="38.5" x2="911.2" y2="57.9" stroke-width="1"/><line x1="2288.2" y1="1009.1" x2="2404.0" y2="991.8" stroke-width="1"/><line x1="1987.9" y1="259.6" x2="1936.9" y2="231.5" stroke-width="1"/><line x1="2330.1" y1="955.8" x2="2259.7" y2="917.1" stroke-width="1"/><line x1="850.5" y1="328.7" x2="821.2" y2="297.2" stroke-width="1"/></g>
  <filter id="n2" x="-20%" y="-20%" width="140%" height="140%">
    <feTurbulence type="fractalNoise" baseFrequency="0.8" numOctaves="2" seed="5"/>
    <feColorMatrix type="saturate" values="0"/>
    <feComponentTransfer><feFuncA type="linear" slope="0.02"/></feComponentTransfer>
  </filter>
  <rect width="2400" height="980" filter="url(#n2)"/>
</svg>
